<svg xmlns="http://www.w3.org/2000/svg" width="128" height="128" viewBox="0 0 128 128">
  <rect width="128" height="128" rx="20" fill="#0f1520"/>
  <rect x="14" y="14" width="100" height="100" rx="8" fill="#161d2a" stroke="#2a3550" stroke-width="2"/>
  <!-- Grid lines -->
  <g stroke="#1e2740" stroke-width="0.5">
    <line x1="38" y1="14" x2="38" y2="114"/>
    <line x1="64" y1="14" x2="64" y2="114"/>
    <line x1="90" y1="14" x2="90" y2="114"/>
    <line x1="14" y1="38" x2="114" y2="38"/>
    <line x1="14" y1="64" x2="114" y2="64"/>
    <line x1="14" y1="90" x2="114" y2="90"/>
  </g>
  <!-- Snake body -->
  <rect x="38" y="38" width="26" height="26" rx="5" fill="#33f066" opacity="0.7"/>
  <rect x="64" y="38" width="26" height="26" rx="5" fill="#44ff77" opacity="0.85"/>
  <rect x="90" y="38" width="26" height="26" rx="5" fill="#44ff77" opacity="0.85"/>
  <!-- Snake head -->
  <rect x="90" y="64" width="26" height="26" rx="6" fill="#33f066"/>
  <!-- Eyes -->
  <circle cx="104" cy="72" r="3.5" fill="white"/>
  <circle cx="112" cy="72" r="3.5" fill="white"/>
  <circle cx="105" cy="72" r="1.8" fill="#111"/>
  <circle cx="113" cy="72" r="1.8" fill="#111"/>
  <!-- Food -->
  <circle cx="38" cy="90" r="10" fill="#ff5555"/>
  <circle cx="35" cy="87" r="3" fill="#ff8888" opacity="0.6"/>
</svg>
