<svg xmlns="http://www.w3.org/2000/svg" width="600" height="680" viewBox="0 0 600 680"><rect width="600" height="680" fill="#0f141e"/><circle cx="475" cy="175" r="15.8125" fill="rgb(30,155,75)"/>
<circle cx="473" cy="173" r="9.487499999999999" fill="rgba(63,170,102,0.12)"/>
<circle cx="475" cy="125" r="16.365384615384617" fill="rgb(31,161,78)"/>
<circle cx="473" cy="123" r="9.819230769230769" fill="rgba(64,175,104,0.12)"/>
<circle cx="475" cy="75" r="16.91826923076923" fill="rgb(33,167,81)"/>
<circle cx="473" cy="73" r="10.150961538461537" fill="rgba(66,180,107,0.12)"/>
<circle cx="425" cy="75" r="17.471153846153847" fill="rgb(34,173,84)"/>
<circle cx="423" cy="73" r="10.482692307692307" fill="rgba(67,185,109,0.12)"/>
<circle cx="375" cy="75" r="18.02403846153846" fill="rgb(36,179,87)"/>
<circle cx="373" cy="73" r="10.814423076923076" fill="rgba(68,190,112,0.12)"/>
<circle cx="325" cy="75" r="18.576923076923073" fill="rgb(37,185,90)"/>
<circle cx="323" cy="73" r="11.146153846153844" fill="rgba(69,195,114,0.12)"/>
<circle cx="275" cy="75" r="19.129807692307693" fill="rgb(39,191,93)"/>
<circle cx="273" cy="73" r="11.477884615384616" fill="rgba(71,200,117,0.12)"/>
<circle cx="275" cy="125" r="19.682692307692307" fill="rgb(40,198,96)"/>
<circle cx="273" cy="123" r="11.809615384615384" fill="rgba(72,206,119,0.12)"/>
<circle cx="275" cy="175" r="20.235576923076923" fill="rgb(42,204,99)"/>
<circle cx="273" cy="173" r="12.141346153846154" fill="rgba(73,211,122,0.12)"/>
<circle cx="275" cy="225" r="20.788461538461537" fill="rgb(43,210,102)"/>
<circle cx="273" cy="223" r="12.473076923076922" fill="rgba(74,216,124,0.12)"/>
<circle cx="275" cy="275" r="21.34134615384615" fill="rgb(45,216,105)"/>
<circle cx="273" cy="273" r="12.804807692307689" fill="rgba(76,221,127,0.12)"/>
<circle cx="225" cy="275" r="23.766666666666666" fill="rgb(46,222,108)"/>
<circle cx="223" cy="273" r="14.26" fill="rgba(77,226,130,0.12)"/>
<circle cx="175" cy="275" r="24.53333333333333" fill="rgb(48,228,111)"/>
<circle cx="173" cy="273" r="14.719999999999999" fill="rgba(79,232,132,0.12)"/>
<circle cx="125" cy="275" r="25.299999999999997" fill="rgb(50,235,115)"/>
<circle cx="123" cy="273" r="15.179999999999998" fill="rgba(80,238,136,0.12)"/>
<ellipse cx="475" cy="177.0625" rx="6.875000000000001" ry="4.8125" fill="rgba(90,240,130,0.15)"/>
<ellipse cx="475" cy="127.13461538461539" rx="7.115384615384616" ry="4.980769230769231" fill="rgba(90,240,130,0.15)"/>
<ellipse cx="475" cy="77.20673076923077" rx="7.355769230769232" ry="5.149038461538462" fill="rgba(90,240,130,0.15)"/>
<ellipse cx="425" cy="77.27884615384616" rx="7.596153846153847" ry="5.3173076923076925" fill="rgba(90,240,130,0.15)"/>
<ellipse cx="375" cy="77.35096153846153" rx="7.836538461538462" ry="5.4855769230769225" fill="rgba(90,240,130,0.15)"/>
<ellipse cx="325" cy="77.42307692307692" rx="8.076923076923077" ry="5.653846153846153" fill="rgba(90,240,130,0.15)"/>
<ellipse cx="275" cy="77.4951923076923" rx="8.317307692307693" ry="5.822115384615385" fill="rgba(90,240,130,0.15)"/>
<ellipse cx="275" cy="127.5673076923077" rx="8.557692307692308" ry="5.990384615384616" fill="rgba(90,240,130,0.15)"/>
<ellipse cx="275" cy="177.63942307692307" rx="8.798076923076923" ry="6.158653846153846" fill="rgba(90,240,130,0.15)"/>
<ellipse cx="275" cy="227.71153846153845" rx="9.038461538461538" ry="6.326923076923077" fill="rgba(90,240,130,0.15)"/>
<ellipse cx="275" cy="277.78365384615387" rx="9.278846153846153" ry="6.495192307692307" fill="rgba(90,240,130,0.15)"/>
<ellipse cx="225" cy="278.1" rx="10.333333333333334" ry="7.233333333333333" fill="rgba(90,240,130,0.15)"/>
<ellipse cx="175" cy="278.2" rx="10.666666666666666" ry="7.466666666666666" fill="rgba(90,240,130,0.15)"/>
<circle cx="117.08" cy="293.47999999999996" r="9.68" fill="rgb(255,255,255)"/>
  <circle cx="119.01599999999999" cy="295.41599999999994" r="5.324" fill="rgb(25,25,25)"/>
  <circle cx="114.66" cy="290.57599999999996" r="2.7104000000000004" fill="white"/>
  <circle cx="118.532" cy="294.448" r="1.3552000000000002" fill="white" opacity="0.7"/>
  <circle cx="143.48" cy="267.08" r="9.68" fill="rgb(255,255,255)"/>
  <circle cx="145.416" cy="269.01599999999996" r="5.324" fill="rgb(25,25,25)"/>
  <circle cx="141.06" cy="264.176" r="2.7104000000000004" fill="white"/>
  <circle cx="144.932" cy="268.048" r="1.3552000000000002" fill="white" opacity="0.7"/>
  <circle cx="112.68" cy="297.88" r="5.720000000000001" fill="rgba(255,115,140,0.35)"/>
  <circle cx="147.88" cy="262.67999999999995" r="5.720000000000001" fill="rgba(255,115,140,0.35)"/>
<text x="20" y="618" fill="white" font-family="Arial,sans-serif" font-size="22" font-weight="bold">9. Blob (Organic)</text>
<text x="20" y="648" fill="#a0a5b4" font-family="Arial,sans-serif" font-size="15">Soft overlapping, like caterpillar</text></svg>